<mxfile host="app.diagrams.net" modified="2020-12-13T22:41:43.013Z" agent="5.0 (Macintosh; Intel Mac OS X 10_15_7) AppleWebKit/605.1.15 (KHTML, like Gecko) Version/14.0.1 Safari/605.1.15" etag="HplelG8lLcnuGV7YmLfs" version="14.0.1" type="github">
  <diagram name="Page-1" id="9f46799a-70d6-7492-0946-bef42562c5a5">
    <mxGraphModel dx="1395" dy="899" grid="1" gridSize="10" guides="1" tooltips="1" connect="1" arrows="1" fold="1" page="1" pageScale="1" pageWidth="1169" pageHeight="827" background="#ffffff" math="0" shadow="0">
      <root>
        <mxCell id="0" />
        <mxCell id="1" parent="0" />
        <mxCell id="R9kDGI2j8S_kD_rxCwKB-2" value="vb &amp;nbsp; &amp;nbsp; &amp;nbsp; &amp;nbsp; &amp;nbsp; &amp;nbsp; &amp;nbsp; &amp;nbsp; &amp;nbsp;" style="shape=folder;fontStyle=1;spacingTop=10;tabWidth=50;tabHeight=15;tabPosition=left;html=1;" vertex="1" parent="1">
          <mxGeometry x="60" y="130" width="310" height="120" as="geometry" />
        </mxCell>
        <mxCell id="R9kDGI2j8S_kD_rxCwKB-1" value="Charger" style="whiteSpace=wrap;html=1;aspect=fixed;" vertex="1" parent="1">
          <mxGeometry x="70" y="155" width="80" height="80" as="geometry" />
        </mxCell>
        <mxCell id="R9kDGI2j8S_kD_rxCwKB-3" value="BMS" style="text;align=center;fontStyle=1;verticalAlign=middle;spacingLeft=3;spacingRight=3;strokeColor=none;rotatable=0;points=[[0,0.5],[1,0.5]];portConstraint=eastwest;" vertex="1" parent="1">
          <mxGeometry x="60" y="130" width="50" height="15" as="geometry" />
        </mxCell>
        <mxCell id="R9kDGI2j8S_kD_rxCwKB-4" value="" style="shape=folder;fontStyle=1;spacingTop=10;tabWidth=100;tabHeight=20;tabPosition=left;html=1;" vertex="1" parent="1">
          <mxGeometry x="120" y="403" width="210" height="110" as="geometry" />
        </mxCell>
        <mxCell id="R9kDGI2j8S_kD_rxCwKB-5" value="LIM control board" style="whiteSpace=wrap;html=1;aspect=fixed;" vertex="1" parent="1">
          <mxGeometry x="140" y="428" width="80" height="80" as="geometry" />
        </mxCell>
        <mxCell id="R9kDGI2j8S_kD_rxCwKB-6" value="Motor Interfaces" style="text;align=center;fontStyle=1;verticalAlign=middle;spacingLeft=3;spacingRight=3;strokeColor=none;rotatable=0;points=[[0,0.5],[1,0.5]];portConstraint=eastwest;" vertex="1" parent="1">
          <mxGeometry x="120" y="403" width="100" height="20" as="geometry" />
        </mxCell>
        <mxCell id="R9kDGI2j8S_kD_rxCwKB-7" value="Discharger" style="whiteSpace=wrap;html=1;aspect=fixed;" vertex="1" parent="1">
          <mxGeometry x="175" y="155" width="80" height="80" as="geometry" />
        </mxCell>
        <mxCell id="R9kDGI2j8S_kD_rxCwKB-8" value="Discharger" style="whiteSpace=wrap;html=1;aspect=fixed;" vertex="1" parent="1">
          <mxGeometry x="280" y="155" width="80" height="80" as="geometry" />
        </mxCell>
        <mxCell id="R9kDGI2j8S_kD_rxCwKB-9" value="Low-Speed motor control board" style="whiteSpace=wrap;html=1;aspect=fixed;" vertex="1" parent="1">
          <mxGeometry x="240" y="428" width="80" height="80" as="geometry" />
        </mxCell>
        <mxCell id="R9kDGI2j8S_kD_rxCwKB-11" value="" style="shape=folder;fontStyle=1;spacingTop=10;tabWidth=100;tabHeight=20;tabPosition=left;html=1;" vertex="1" parent="1">
          <mxGeometry x="810" y="584" width="210" height="110" as="geometry" />
        </mxCell>
        <mxCell id="R9kDGI2j8S_kD_rxCwKB-12" value="Emergency Brake control unit" style="whiteSpace=wrap;html=1;aspect=fixed;" vertex="1" parent="1">
          <mxGeometry x="830" y="609" width="80" height="80" as="geometry" />
        </mxCell>
        <mxCell id="R9kDGI2j8S_kD_rxCwKB-13" value="Brake Interfaces" style="text;align=center;fontStyle=1;verticalAlign=middle;spacingLeft=3;spacingRight=3;strokeColor=none;rotatable=0;points=[[0,0.5],[1,0.5]];portConstraint=eastwest;" vertex="1" parent="1">
          <mxGeometry x="810" y="584" width="100" height="20" as="geometry" />
        </mxCell>
        <mxCell id="R9kDGI2j8S_kD_rxCwKB-14" value="Eddy-Current Brake control unit" style="whiteSpace=wrap;html=1;aspect=fixed;" vertex="1" parent="1">
          <mxGeometry x="930" y="609" width="80" height="80" as="geometry" />
        </mxCell>
        <mxCell id="R9kDGI2j8S_kD_rxCwKB-15" value="" style="shape=folder;fontStyle=1;spacingTop=10;tabWidth=110;tabHeight=20;tabPosition=left;html=1;" vertex="1" parent="1">
          <mxGeometry x="530" y="60" width="200" height="230" as="geometry" />
        </mxCell>
        <mxCell id="R9kDGI2j8S_kD_rxCwKB-16" value="Port-side monitoring" style="whiteSpace=wrap;html=1;aspect=fixed;" vertex="1" parent="1">
          <mxGeometry x="540" y="200" width="80" height="80" as="geometry" />
        </mxCell>
        <mxCell id="R9kDGI2j8S_kD_rxCwKB-17" value="Wheel monitoring" style="text;align=center;fontStyle=1;verticalAlign=middle;spacingLeft=3;spacingRight=3;strokeColor=none;rotatable=0;points=[[0,0.5],[1,0.5]];portConstraint=eastwest;" vertex="1" parent="1">
          <mxGeometry x="530" y="60" width="110" height="20" as="geometry" />
        </mxCell>
        <mxCell id="R9kDGI2j8S_kD_rxCwKB-18" value="Startboard-side monitoring" style="whiteSpace=wrap;html=1;aspect=fixed;" vertex="1" parent="1">
          <mxGeometry x="640" y="200" width="80" height="80" as="geometry" />
        </mxCell>
        <mxCell id="R9kDGI2j8S_kD_rxCwKB-19" value="" style="shape=folder;fontStyle=1;spacingTop=10;tabWidth=100;tabHeight=20;tabPosition=left;html=1;" vertex="1" parent="1">
          <mxGeometry x="340" y="640" width="210" height="110" as="geometry" />
        </mxCell>
        <mxCell id="R9kDGI2j8S_kD_rxCwKB-20" value="Startboard-side&amp;nbsp;interface" style="whiteSpace=wrap;html=1;aspect=fixed;" vertex="1" parent="1">
          <mxGeometry x="360" y="665" width="80" height="80" as="geometry" />
        </mxCell>
        <mxCell id="R9kDGI2j8S_kD_rxCwKB-21" value="Suspension" style="text;align=center;fontStyle=1;verticalAlign=middle;spacingLeft=3;spacingRight=3;strokeColor=none;rotatable=0;points=[[0,0.5],[1,0.5]];portConstraint=eastwest;" vertex="1" parent="1">
          <mxGeometry x="340" y="640" width="100" height="20" as="geometry" />
        </mxCell>
        <mxCell id="R9kDGI2j8S_kD_rxCwKB-22" value="Startboard-side&amp;nbsp;interface" style="whiteSpace=wrap;html=1;aspect=fixed;" vertex="1" parent="1">
          <mxGeometry x="460" y="665" width="80" height="80" as="geometry" />
        </mxCell>
        <mxCell id="R9kDGI2j8S_kD_rxCwKB-23" value="Feedback for&amp;nbsp;monitoring speed" style="shape=note2;boundedLbl=1;whiteSpace=wrap;html=1;size=25;verticalAlign=top;align=center;" vertex="1" parent="1">
          <mxGeometry x="550" y="105" width="120" height="70" as="geometry" />
        </mxCell>
        <mxCell id="R9kDGI2j8S_kD_rxCwKB-25" value="" style="shape=folder;fontStyle=1;spacingTop=10;tabWidth=135;tabHeight=20;tabPosition=left;html=1;" vertex="1" parent="1">
          <mxGeometry x="537.5" y="398" width="145" height="110" as="geometry" />
        </mxCell>
        <mxCell id="R9kDGI2j8S_kD_rxCwKB-26" value="Dynamics Control Unit Motherboard" style="whiteSpace=wrap;html=1;aspect=fixed;" vertex="1" parent="1">
          <mxGeometry x="570" y="422" width="80" height="80" as="geometry" />
        </mxCell>
        <mxCell id="R9kDGI2j8S_kD_rxCwKB-27" value="Dynamics control Unit" style="text;align=center;fontStyle=1;verticalAlign=middle;spacingLeft=3;spacingRight=3;strokeColor=none;rotatable=0;points=[[0,0.5],[1,0.5]];portConstraint=eastwest;" vertex="1" parent="1">
          <mxGeometry x="537.5" y="398" width="135" height="20" as="geometry" />
        </mxCell>
        <mxCell id="R9kDGI2j8S_kD_rxCwKB-29" value="" style="shape=folder;fontStyle=1;spacingTop=10;tabWidth=135;tabHeight=20;tabPosition=left;html=1;" vertex="1" parent="1">
          <mxGeometry x="830" y="280" width="145" height="110" as="geometry" />
        </mxCell>
        <mxCell id="R9kDGI2j8S_kD_rxCwKB-30" value="Rail Distance Sensor interface" style="whiteSpace=wrap;html=1;aspect=fixed;" vertex="1" parent="1">
          <mxGeometry x="862.5" y="304" width="80" height="80" as="geometry" />
        </mxCell>
        <mxCell id="R9kDGI2j8S_kD_rxCwKB-31" value="Rail distance unit" style="text;align=center;fontStyle=1;verticalAlign=middle;spacingLeft=3;spacingRight=3;strokeColor=none;rotatable=0;points=[[0,0.5],[1,0.5]];portConstraint=eastwest;" vertex="1" parent="1">
          <mxGeometry x="830" y="280" width="135" height="20" as="geometry" />
        </mxCell>
      </root>
    </mxGraphModel>
  </diagram>
</mxfile>
